<?xml version="1.0" encoding="iso-8859-1"?>
<!-- Generator: Adobe Illustrator 21.0.0, SVG Export Plug-In . SVG Version: 6.00 Build 0)  -->
<svg version="1.1" id="Capa_1" xmlns="http://www.w3.org/2000/svg" xmlns:xlink="http://www.w3.org/1999/xlink" x="0px" y="0px"
	 viewBox="0 0 512 512" style="enable-background:new 0 0 512 512;" xml:space="preserve">
<g>
	<g>
		<path d="M255.999,271.024c-8.271,0-15,6.729-15,15s6.729,15,15,15s15-6.729,15-15S264.27,271.024,255.999,271.024z"/>
	</g>
</g>
<g>
	<g>
		<path d="M376.939,271.024h29.292c-7.065-71.298-63.934-128.167-135.232-135.232v29.292h-30v-29.292
			c-71.298,7.065-128.167,63.934-135.232,135.232h29.292v30h-29.292c7.065,71.298,63.934,128.167,135.232,135.232v-29.292h30v29.292
			c71.298-7.065,128.167-63.934,135.232-135.232h-29.292V271.024z M300.999,286.024c0,24.813-20.187,45-45,45s-45-20.187-45-45
			s20.187-45,45-45c6.939,0,13.514,1.581,19.389,4.398l44.915-44.915l21.213,21.213l-44.915,44.915
			C299.418,272.51,300.999,279.085,300.999,286.024z"/>
	</g>
</g>
<g>
	<g>
		<path d="M447.642,115.594l21.239,21.239l21.213-21.213l-63.69-63.691l-21.213,21.213l21.239,21.239l-21.602,21.602
			c-29.815-26.17-65.429-43.752-103.804-51.47V30h30.036V0h-30.036h-90.048h-30.037v30h30.036v34.513
			c-38.375,7.718-73.989,25.3-103.804,51.47L85.569,94.381l21.239-21.239L85.595,51.929l-63.69,63.691l21.213,21.213l21.239-21.239
			l21.602,21.602c-36.17,41.208-55.935,93.495-55.935,148.828c0,60.36,23.506,117.108,66.187,159.789
			C138.892,488.494,195.639,512,255.999,512s117.108-23.506,159.789-66.187c42.681-42.681,66.187-99.429,66.187-159.789
			c0-55.332-19.766-107.62-55.935-148.828L447.642,115.594z M436.975,286.024c0,99.79-81.185,180.976-180.976,180.976
			S75.023,385.814,75.023,286.024s81.185-180.976,180.976-180.976S436.975,186.234,436.975,286.024z"/>
	</g>
</g>
<g>
</g>
<g>
</g>
<g>
</g>
<g>
</g>
<g>
</g>
<g>
</g>
<g>
</g>
<g>
</g>
<g>
</g>
<g>
</g>
<g>
</g>
<g>
</g>
<g>
</g>
<g>
</g>
<g>
</g>
</svg>
